<svg width="164" height="24" viewBox="0 0 164 24" fill="none" xmlns="http://www.w3.org/2000/svg">
<path fill-rule="evenodd" clip-rule="evenodd" d="M29.3163 16.9065V23.3066C29.3163 23.6801 28.9954 24 28.6217 24H26V4.90598C26 4.5325 26.3209 4.21263 26.7215 4.21263H28.3806C28.7015 4.21263 28.9695 4.39937 29.0492 4.69243L29.1559 4.98549C30.0656 4.37256 30.9754 4 32.4471 4C36.727 4 39 7.17278 39 10.9058C39 14.6397 36.727 17.8134 32.4471 17.8134C31.0551 17.8134 30.1992 17.4927 29.3163 16.9065M29.1559 10.9058C29.1559 13.3862 30.0925 15.0936 32.2329 15.0936C34.3724 15.0936 35.603 13.3862 35.603 10.9058C35.603 8.42637 34.3724 6.71887 32.2329 6.71887C30.0925 6.71887 29.1559 8.42637 29.1559 10.9058" fill="#FEFEFE"/>
<path fill-rule="evenodd" clip-rule="evenodd" d="M47.4506 7.22438H46.1374C44.9667 7.22438 43.9395 7.83104 43.5397 8.60202V17.3389C43.5397 17.6971 43.225 18 42.854 18H40V4.88181C40 4.52354 40.3137 4.22069 40.6848 4.22069H42.6541C43.0252 4.22069 43.3398 4.49679 43.3398 4.8541L43.3962 5.68145C44.1384 4.93626 45.5664 4 47.1933 4H47.3932C47.7643 4 48.0493 4.33056 47.9929 4.71653L47.4506 7.22438Z" fill="#FEFEFE"/>
<path fill-rule="evenodd" clip-rule="evenodd" d="M47 11C47 7.21614 49.5733 4 53.9995 4C58.4267 4 61 7.21614 61 11C61 14.7839 58.4267 18 53.9995 18C49.5733 18 47 14.7839 47 11M50.5132 11C50.5132 13.5135 51.7859 15.2429 53.9995 15.2429C56.2122 15.2429 57.4859 13.5135 57.4859 11C57.4859 8.48648 56.2122 6.75709 53.9995 6.75709C51.7859 6.75709 50.5132 8.48648 50.5132 11" fill="#FEFEFE"/>
<path fill-rule="evenodd" clip-rule="evenodd" d="M65.317 16.9065V23.3066C65.317 23.6801 64.9961 24 64.6215 24H62V4.90598C62 4.5325 62.3218 4.21263 62.7224 4.21263H64.3813C64.7022 4.21263 64.9693 4.39937 65.0499 4.69243L65.1566 4.98549C66.0663 4.37256 66.975 4 68.4467 4C72.7272 4 75 7.17278 75 10.9058C75 14.6397 72.7272 17.8134 68.4467 17.8134C67.0557 17.8134 66.1998 17.4927 65.317 16.9065M65.1566 10.9058C65.1566 13.3862 66.0932 15.0936 68.2334 15.0936C70.3727 15.0936 71.6033 13.3862 71.6033 10.9058C71.6033 8.42637 70.3727 6.71887 68.2334 6.71887C66.0932 6.71887 65.1566 8.42637 65.1566 10.9058" fill="#FEFEFE"/>
<path fill-rule="evenodd" clip-rule="evenodd" d="M80.3649 11.7027C80.7302 14.2166 82.5307 15.2425 84.2524 15.2425C85.2173 15.2425 86.4951 14.9193 87.5124 14.4864C87.904 14.3515 88.2956 14.6213 88.3218 15.027L88.4258 16.9731C87.4338 17.5137 85.9218 18 84.0698 18C79.3476 18 77 14.7834 77 11C77 7.24281 79.2436 4 83.2604 4C86.5476 4 89 6.29648 89 9.86441C89 10.2701 88.9738 10.702 88.896 11.1349C88.8436 11.4591 88.556 11.7027 88.2431 11.7027H80.3649ZM80.4436 9.43247H85.7129C85.7129 8.21537 85.1124 6.75653 83.3644 6.75653C81.696 6.75653 80.7564 7.89212 80.4436 9.43247V9.43247Z" fill="#FEFEFE"/>
<path fill-rule="evenodd" clip-rule="evenodd" d="M97.4506 7.22438H96.1374C94.9667 7.22438 93.9395 7.83104 93.5397 8.60202V17.3389C93.5397 17.6971 93.225 18 92.854 18H90V4.88181C90 4.52354 90.3137 4.22069 90.6848 4.22069H92.6541C93.0252 4.22069 93.3398 4.49679 93.3398 4.8541L93.3972 5.68145C94.1394 4.93626 95.5664 4 97.1933 4H97.3932C97.7643 4 98.0493 4.33056 97.9929 4.71653L97.4506 7.22438Z" fill="#FEFEFE"/>
<path fill-rule="evenodd" clip-rule="evenodd" d="M106.764 17.4628C106.737 17.7579 106.474 18 106.186 18H104.376C101.911 18 100.862 16.2274 100.862 14.4818V7.0431H99.5773C99.2618 7.0431 99 6.77404 99 6.45192V4.89436C99 4.57223 99.2618 4.30318 99.5773 4.30318H100.862V1.59118C100.862 1.26813 101.125 1 101.439 1H104.114V4.30318H106.423C106.737 4.30318 107 4.57223 107 4.89436V7.0431H104.114V13.1123C104.114 15.153 104.272 15.261 106.107 15.261H106.344C106.685 15.261 106.973 15.5561 106.921 15.9323L106.764 17.4628Z" fill="#FEFEFE"/>
<path fill-rule="evenodd" clip-rule="evenodd" d="M113.966 23.4347C113.829 23.7851 113.503 24 113.12 24H111.186C110.804 24 110.531 23.5963 110.668 23.2459L113.393 16.5883L108.051 4.7279C107.888 4.3775 108.133 4 108.542 4H111.486L114.974 12.6797L118.272 4.56625C118.408 4.21678 118.763 4 119.144 4H121.461C121.843 4 122.115 4.3775 121.952 4.7279L113.966 23.4347Z" fill="#FEFEFE"/>
<path fill-rule="evenodd" clip-rule="evenodd" d="M120 16.0917V15.9072C120 14.8299 120.678 14 121.5 14C122.323 14 123 14.8299 123 15.9072V16.0917C123 17.1381 122.323 18 121.5 18C120.678 18 120 17.1381 120 16.0917" fill="#FEFEFE"/>
<path fill-rule="evenodd" clip-rule="evenodd" d="M132.65 17C132.468 17 132.337 16.9225 132.234 16.7927L130.026 13.3343L127.844 17H124.493C124.285 17 124.156 16.7666 124.26 16.5845L128.182 10.5005L124 4H127.584C127.741 4 127.896 4.07842 127.975 4.20821L130.208 7.66574L132.234 4.23345C132.337 4.07842 132.494 4 132.65 4H135.714C135.948 4 136.079 4.23345 135.948 4.41642L132.027 10.5005L135.948 16.5845C136.079 16.7666 135.948 17 135.714 17H132.65Z" fill="#FEFEFE"/>
<path fill-rule="evenodd" clip-rule="evenodd" d="M142.966 23.4347C142.829 23.7851 142.503 24 142.12 24H140.186C139.804 24 139.531 23.5963 139.667 23.2459L142.394 16.5883L137.051 4.7279C136.888 4.3775 137.132 4 137.543 4H140.486L143.974 12.6797L147.272 4.56625C147.408 4.21678 147.762 4 148.144 4H150.461C150.843 4 151.115 4.3775 150.952 4.7279L142.966 23.4347Z" fill="#FEFEFE"/>
<path fill-rule="evenodd" clip-rule="evenodd" d="M163.973 6.23622L156.773 14.0878V14.1662H163.025C163.388 14.1662 163.694 14.4519 163.694 14.7899V17H152.67C152.279 17 152 16.7143 152 16.3763V15.1541C152 15.0243 152.056 14.8683 152.139 14.7638L159.368 6.9645L152.893 6.88608C152.53 6.88608 152.252 6.60036 152.252 6.26146V4H163.33C163.721 4 164 4.28572 164 4.64986L163.973 6.23622Z" fill="#FEFEFE"/>
<mask id="mask0_0_1462" style="mask-type:alpha" maskUnits="userSpaceOnUse" x="0" y="0" width="22" height="17">
<path fill-rule="evenodd" clip-rule="evenodd" d="M0 0H22V17H0V0Z" fill="white"/>
</mask>
<g mask="url(#mask0_0_1462)">
<path fill-rule="evenodd" clip-rule="evenodd" d="M10.8031 0.0367704L0.346726 4.02341C0.137766 4.1033 0 4.30123 0 4.52276V16.4654C0 16.7614 0.243171 17.0002 0.544591 17.0002H3.30083V13.7735V9.08138V6.19967L11 3.42419L18.6992 6.19967V13.7735H13.2486H6.31411C6.07834 13.7735 5.85274 13.8742 5.69833 14.0486L3.30083 17.0002H8.86047H21.4554C21.7559 17.0002 22 16.7614 22 16.4654V4.52276C22 4.30123 21.8622 4.1033 21.6523 4.02341L11.1979 0.0367704C11.0703 -0.0122568 10.9297 -0.0122568 10.8031 0.0367704" fill="#FEFEFE"/>
</g>
</svg>
