<svg width="125" height="76" viewBox="0 0 125 76" fill="none" xmlns="http://www.w3.org/2000/svg">
<path fill-rule="evenodd" clip-rule="evenodd" d="M4.12829 35.9782C4.12829 39.2029 5.35201 41.4209 8.15007 41.4209C10.949 41.4209 12.5581 39.2029 12.5581 35.9782C12.5581 32.7544 10.949 30.5355 8.15007 30.5355C5.35201 30.5355 4.12829 32.7544 4.12829 35.9782M4.33765 43.779V52.0989C4.33765 52.5841 3.91756 53 3.42843 53H0V28.1783C0 27.6922 0.420097 27.2763 0.943962 27.2763H3.11256C3.53266 27.2763 3.88281 27.5192 3.98704 27.9006L4.12829 28.2816C5.31727 27.4847 6.50625 27 8.42983 27C14.0273 27 17 31.1244 17 35.9782C17 40.8315 14.0273 44.9573 8.42983 44.9573C6.61185 44.9573 5.49189 44.5414 4.33765 43.779" fill="#FEFEFE"/>
<path fill-rule="evenodd" clip-rule="evenodd" d="M28.3127 31.1462H26.6714C25.2088 31.1462 23.9237 31.9254 23.4248 32.9176V44.149C23.4248 44.6097 23.0318 45 22.5683 45H19V28.1353C19 27.6737 19.3921 27.2847 19.8565 27.2847H22.3184C22.7828 27.2847 23.1745 27.6385 23.1745 28.0987L23.2467 29.1627C24.1737 28.2056 25.9576 27 27.9919 27H28.2418C28.7057 27 29.0615 27.4255 28.9911 27.9223L28.3127 31.1462Z" fill="#FEFEFE"/>
<path fill-rule="evenodd" clip-rule="evenodd" d="M32.2671 36C32.2671 39.2322 33.8126 41.4554 36.5 41.4554C39.1883 41.4554 40.7338 39.2322 40.7338 36C40.7338 32.7678 39.1883 30.5446 36.5 30.5446C33.8126 30.5446 32.2671 32.7678 32.2671 36M28 36C28 31.1354 31.1247 27 36.5 27C41.8762 27 45 31.1354 45 36C45 40.8651 41.8762 45 36.5 45C31.1247 45 28 40.8651 28 36" fill="#FEFEFE"/>
<path fill-rule="evenodd" clip-rule="evenodd" d="M51.1281 35.9782C51.1281 39.2029 52.3517 41.4209 55.1496 41.4209C57.9489 41.4209 59.5574 39.2029 59.5574 35.9782C59.5574 32.7544 57.9489 30.5355 55.1496 30.5355C52.3517 30.5355 51.1281 32.7544 51.1281 35.9782M51.3374 43.779V52.0989C51.3374 52.5841 50.9173 53 50.4282 53H47V28.1783C47 27.6922 47.4201 27.2763 47.9439 27.2763H50.1124C50.5325 27.2763 50.8831 27.5192 50.9868 27.9006L51.1281 28.2816C52.317 27.4847 53.5059 27 55.4294 27C61.0266 27 64 31.1244 64 35.9782C64 40.8315 61.0266 44.9573 55.4294 44.9573C53.6115 44.9573 52.4916 44.5414 51.3374 43.779" fill="#FEFEFE"/>
<path fill-rule="evenodd" clip-rule="evenodd" d="M70.5912 33.984H77.6174C77.6174 32.421 76.817 30.5447 74.487 30.5447C72.2603 30.5447 71.0089 32.0042 70.5912 33.984V33.984ZM70.4871 36.9034C70.9744 40.1348 73.3734 41.4553 75.6693 41.4553C76.9565 41.4553 78.661 41.038 80.0169 40.4831C80.5391 40.3083 81.0609 40.6566 81.0955 41.1779L81.235 43.6795C79.9132 44.3747 77.8956 45 75.4265 45C69.1308 45 66 40.8654 66 36.0002C66 31.17 68.9913 27 74.3479 27C78.7296 27 82 29.9535 82 34.5403C82 35.0621 81.965 35.6179 81.8605 36.1741C81.7918 36.5901 81.4087 36.9034 80.9909 36.9034H70.4871Z" fill="#FEFEFE"/>
<path fill-rule="evenodd" clip-rule="evenodd" d="M92.3125 31.1462H90.6712C89.2085 31.1462 87.9239 31.9254 87.4245 32.9176V44.149C87.4245 44.6097 87.0319 45 86.568 45H83V28.1353C83 27.6737 83.3917 27.2847 83.8566 27.2847H86.3181C86.7829 27.2847 87.1741 27.6385 87.1741 28.0987L87.2464 29.1627C88.1738 28.2056 89.9574 27 91.9917 27H92.2421C92.7056 27 93.0619 27.4255 92.991 27.9223L92.3125 31.1462Z" fill="#FEFEFE"/>
<path fill-rule="evenodd" clip-rule="evenodd" d="M105.676 44.3047C105.64 44.6871 105.279 45 104.882 45H102.394C99.0033 45 97.5602 42.7059 97.5602 40.4464V30.8196H95.7937C95.361 30.8196 95 30.4722 95 30.0548V28.0391C95 27.6222 95.361 27.2747 95.7937 27.2747H97.5602V23.7639C97.5602 23.347 97.9217 23 98.3548 23H102.033V27.2747H105.207C105.64 27.2747 106 27.6222 106 28.0391V30.8196H102.033V38.6746C102.033 41.3162 102.249 41.4547 104.775 41.4547H105.098C105.568 41.4547 105.964 41.8371 105.892 42.3235L105.676 44.3047Z" fill="#FEFEFE"/>
<mask id="mask0_0_3664" style="mask-type:alpha" maskUnits="userSpaceOnUse" x="107" y="27" width="18" height="26">
<path fill-rule="evenodd" clip-rule="evenodd" d="M107.086 27.0234H124.774V52.924H107.086V27.0234Z" fill="white"/>
</mask>
<g mask="url(#mask0_0_3664)">
<path fill-rule="evenodd" clip-rule="evenodd" d="M114.623 52.191C114.451 52.6448 114.038 52.924 113.556 52.924H111.11C110.628 52.924 110.284 52.3999 110.457 51.9465L113.9 43.3245L107.15 27.9667C106.944 27.5129 107.253 27.0234 107.77 27.0234H111.489L115.897 38.2632L120.064 27.7565C120.237 27.3026 120.684 27.0234 121.166 27.0234H124.093C124.575 27.0234 124.92 27.5129 124.713 27.9667L114.623 52.191Z" fill="#FEFEFE"/>
</g>
<path fill-rule="evenodd" clip-rule="evenodd" d="M51 64.0923V63.9081C51 62.8304 51.9035 62 53 62C54.097 62 55 62.8304 55 63.9081V64.0923C55 65.1382 54.097 66 53 66C51.9035 66 51 65.1382 51 64.0923" fill="#FEFEFE"/>
<path fill-rule="evenodd" clip-rule="evenodd" d="M68.533 66C68.2904 66 68.117 65.8978 67.9786 65.7281L65.0346 61.2059L62.1259 66H57.658C57.3806 66 57.2082 65.6943 57.3467 65.4557L62.5757 57.4996L57 49H61.7796C61.9869 49 62.1951 49.1022 62.2987 49.2724L65.2771 53.7941L67.9786 49.3057C68.117 49.1022 68.3252 49 68.533 49H72.6188C72.9315 49 73.1044 49.3057 72.9315 49.5443L67.7016 57.4996L72.9315 65.4557C73.1044 65.6943 72.9315 66 72.6188 66H68.533Z" fill="#FEFEFE"/>
<mask id="mask1_0_3664" style="mask-type:alpha" maskUnits="userSpaceOnUse" x="74" y="49" width="18" height="26">
<path fill-rule="evenodd" clip-rule="evenodd" d="M74.2115 49.0996H91.8996V75H74.2115V49.0996Z" fill="white"/>
</mask>
<g mask="url(#mask1_0_3664)">
<path fill-rule="evenodd" clip-rule="evenodd" d="M81.7488 74.2672C81.5769 74.721 81.1633 75.0002 80.6809 75.0002H78.2361C77.7541 75.0002 77.4094 74.4761 77.5822 74.0222L81.0261 65.4007L74.2761 50.0425C74.07 49.589 74.3791 49.0996 74.8962 49.0996H78.615L83.0227 60.3394L87.1893 49.8326C87.3616 49.3788 87.8089 49.0996 88.2918 49.0996H91.219C91.7005 49.0996 92.0448 49.589 91.8387 50.0425L81.7488 74.2672Z" fill="#FEFEFE"/>
</g>
<path fill-rule="evenodd" clip-rule="evenodd" d="M107.965 51.9243L98.9658 62.192V62.2941H106.779C107.233 62.2941 107.617 62.6678 107.617 63.1103V66H93.8374C93.3492 66 93 65.6263 93 65.1838V63.5862C93 63.416 93.0702 63.2116 93.1746 63.0757L102.21 52.8765L94.1164 52.7743C93.6633 52.7743 93.3145 52.4002 93.3145 51.9581V49H107.164C107.652 49 108 49.3737 108 49.8504L107.965 51.9243Z" fill="#FEFEFE"/>
<path fill-rule="evenodd" clip-rule="evenodd" d="M32.2397 0.0471709L18.4581 5.20629C18.1819 5.30993 18 5.56594 18 5.85251V21.3077C18 21.6913 18.3207 22 18.7176 22H22.3504V17.8246V11.7526V8.02281L32.4998 4.43162L42.6487 8.02281V17.8246H35.464H26.3227C26.0112 17.8246 25.7153 17.9539 25.5104 18.1807L22.3504 22H29.6802H46.2814C46.6784 22 47 21.6913 47 21.3077V5.85251C47 5.56594 46.8176 5.30993 46.5419 5.20629L32.7603 0.0471709C32.5921 -0.0157236 32.4079 -0.0157236 32.2397 0.0471709" fill="#FEFEFE"/>
</svg>
