<svg width="16" height="16" viewBox="0 0 16 16" fill="none" xmlns="http://www.w3.org/2000/svg">
<path fill-rule="evenodd" clip-rule="evenodd" d="M11.913 11.0334L15.8177 14.9381C16.0607 15.181 16.0607 15.5748 15.8178 15.8178C15.6963 15.9393 15.537 16 15.3779 16C15.2187 16 15.0595 15.9393 14.938 15.8178L11.0332 11.913C9.86602 12.8836 8.36716 13.4683 6.73419 13.4683C3.02093 13.4683 0 10.4475 0 6.73438C0 3.02103 3.02093 0 6.73419 0C10.4474 0 13.4683 3.02103 13.4683 6.73438C13.4683 8.36744 12.8835 9.86621 11.913 11.0334ZM6.73419 1.24414C3.70695 1.24414 1.24414 3.70705 1.24414 6.73438C1.24414 9.76146 3.70695 12.2241 6.73419 12.2241C9.76134 12.2241 12.2241 9.76146 12.2241 6.73438C12.2241 3.70705 9.76134 1.24414 6.73419 1.24414Z" fill="white"/>
</svg>
