<svg width="18" height="18" viewBox="0 0 18 18" fill="none" xmlns="http://www.w3.org/2000/svg">
<path fill-rule="evenodd" clip-rule="evenodd" d="M16.9102 7H13.7461V17.006H12.6914V10.9759H9.52734V17.006H8.47266V8.98795H5.30859V17.006H4.25391V11.9699H1.08984V17.006H0V18H18V17.006H16.9102V7ZM14.8008 7.99398H15.8555V17.006H14.8008V7.99398ZM11.6367 11.9699H10.582V17.006H11.6367V11.9699ZM6.36328 9.98193H7.41797V17.006H6.36328V9.98193ZM3.19922 12.9639H2.14453V17.006H3.19922V12.9639Z" fill="#B2B7C5"/>
<path d="M13.709 1.01643H16.1788L11.0504 5.88905L6.79485 1.82334L0 8.27928L0.750176 9L6.79279 3.25881L11.0483 7.32452L16.9361 1.73037V4.06571H18V0H13.709V1.01643Z" fill="#B2B7C5"/>
</svg>
